HIERARCHY
ROOT Hips
{
	OFFSET 55.310501 45.591206 43.872097
	CHANNELS 6 Xposition Yposition Zposition Zrotation Xrotation Yrotation
	JOINT Chest
	{
		OFFSET -0.153500 1.163101 7.852402
		CHANNELS 6 Xposition Yposition Zposition Zrotation Xrotation Yrotation
		JOINT Chest2
		{
			OFFSET 0.000000 0.000000 3.343300
			CHANNELS 6 Xposition Yposition Zposition Zrotation Xrotation Yrotation
			JOINT Neck
			{
				OFFSET 0.000000 0.000000 7.785500
				CHANNELS 6 Xposition Yposition Zposition Zrotation Xrotation Yrotation
				JOINT Head
				{
					OFFSET 0.000000 0.000000 2.173901
					CHANNELS 6 Xposition Yposition Zposition Zrotation Xrotation Yrotation
					End Site
					{
						OFFSET 0.000000 0.000000 10.528198
					}
				}
			}
			JOINT LeftCollar
			{
				OFFSET 2.676300 -1.652401 4.938301
				CHANNELS 6 Xposition Yposition Zposition Zrotation Xrotation Yrotation
				JOINT LeftShoulder
				{
					OFFSET 4.299000 0.000000 0.000000
					CHANNELS 6 Xposition Yposition Zposition Zrotation Xrotation Yrotation
					JOINT LeftElbow
					{
						OFFSET 0.000000 0.000000 -10.245102
						CHANNELS 6 Xposition Yposition Zposition Zrotation Xrotation Yrotation
						JOINT LeftWrist
						{
							OFFSET 0.000000 0.000000 -12.703300
							CHANNELS 6 Xposition Yposition Zposition Zrotation Xrotation Yrotation
							End Site
							{
								OFFSET 0.000000 0.000000 -2.173901
							}
						}
					}
				}
			}
			JOINT RightCollar
			{
				OFFSET -2.534599 -1.686401 5.195000
				CHANNELS 6 Xposition Yposition Zposition Zrotation Xrotation Yrotation
				JOINT RightShoulder
				{
					OFFSET -4.144100 0.000000 0.000000
					CHANNELS 6 Xposition Yposition Zposition Zrotation Xrotation Yrotation
					JOINT RightElbow
					{
						OFFSET 0.000000 0.000000 -10.116501
						CHANNELS 6 Xposition Yposition Zposition Zrotation Xrotation Yrotation
						JOINT RightWrist
						{
							OFFSET 0.000000 0.000000 -12.937801
							CHANNELS 6 Xposition Yposition Zposition Zrotation Xrotation Yrotation
							End Site
							{
								OFFSET 0.000000 0.000000 -2.173901
							}
						}
					}
				}
			}
		}
	}
	JOINT LeftHip
	{
		OFFSET 2.175598 0.064499 -2.662899
		CHANNELS 6 Xposition Yposition Zposition Zrotation Xrotation Yrotation
		JOINT LeftKnee
		{
			OFFSET 0.000000 -0.000004 -18.585800
			CHANNELS 6 Xposition Yposition Zposition Zrotation Xrotation Yrotation
			JOINT LeftAnkle
			{
				OFFSET 0.000000 0.000000 -18.979500
				CHANNELS 6 Xposition Yposition Zposition Zrotation Xrotation Yrotation
				End Site
				{
					OFFSET 0.000000 -9.264000 0.000000
				}
			}
		}
	}
	JOINT RightHip
	{
		OFFSET -2.092400 -0.058102 -2.581200
		CHANNELS 6 Xposition Yposition Zposition Zrotation Xrotation Yrotation
		JOINT RightKnee
		{
			OFFSET 0.000000 -0.000004 -18.665001
			CHANNELS 6 Xposition Yposition Zposition Zrotation Xrotation Yrotation
			JOINT RightAnkle
			{
				OFFSET 0.000000 0.000000 -18.566601
				CHANNELS 6 Xposition Yposition Zposition Zrotation Xrotation Yrotation
				End Site
				{
					OFFSET 0.000000 -8.497601 0.000000
				}
			}
		}
	}
}
MOTION
Frames: 4
Frame Time: 0.041667
58.618298 -10.869102 48.479191 3148.268491 -6.726413 -0.446476 -0.153502 1.163103 7.852416 -19.007409 8.778661 -5.607586 0.000004 0.000000 3.343294 4.252988 -2.989108 0.043536 -0.000007 -0.000007 7.785510 17.967091 -0.146247 4.101789 0.000000 0.000003 2.173911 1.421420 -5.069751 1.267249 2.676291 -1.652400 4.938299 15.131167 -12.535660 -14.749186 4.298998 0.000013 0.000002 -398.769475 -9.721749 225.132966 -0.000010 0.000006 -10.245108 75.160160 707.104896 364.701448 -0.000002 0.000008 -12.703307 1296.334934 -170.904256 590.748635 -2.534601 -1.686396 5.195006 8.172816 8.264038 3.116747 -4.144105 0.000008 -0.000005 194.498079 148.611912 -159.383257 -0.000001 -0.000013 -10.116493 -569.677009 -178.344394 -184.219955 0.000010 0.000000 -12.937796 -1501.471524 -3.832461 -25.747441 2.175587 0.064490 -2.662887 -1086.266729 8.804736 -2.297897 -0.000007 -0.000001 -18.585802 561.040153 -195.611563 -173.505369 -0.000006 -0.000001 -18.979504 711.467256 39.842764 -735.509631 -2.092396 -0.058108 -2.581182 1424.592991 -3.982739 6.151466 0.000008 -0.000005 -18.665009 -1074.057520 32.236488 -1085.012924 0.000005 -0.000005 -18.566610 757.701517 38.134415 -6.481300
58.635899 -10.878696 48.469093 3147.541103 -6.510474 -0.294394 -0.153502 1.163094 7.852402 -19.820056 8.761095 -5.419188 0.000007 0.000012 3.343300 4.452236 -3.035936 0.046769 0.000002 0.000001 7.785505 18.738195 -0.197752 3.717820 0.000001 -0.000003 2.173895 1.674683 -5.022438 1.320962 2.676291 -1.652396 4.938303 14.296886 -11.906694 -14.692802 4.299000 0.000004 -0.000010 -397.739756 -9.027558 225.608976 -0.000003 -0.000009 -10.245106 76.705797 706.869664 364.867257 -0.000006 0.000008 -12.703302 1298.317656 -170.734006 591.386848 -2.534602 -1.686402 5.195004 7.988768 8.327275 2.754727 -4.144102 0.000000 0.000007 192.782226 147.812397 -157.747358 -0.000001 -0.000010 -10.116491 -570.298939 -178.234620 -184.273299 -0.000000 0.000005 -12.937799 -1501.059418 -3.921783 -25.682063 2.175591 0.064487 -2.662896 -1086.380055 8.755909 -2.339784 -0.000007 -0.000003 -18.585800 561.243310 -195.435686 -173.493881 -0.000006 0.000002 -18.979507 711.814339 39.463573 -734.767545 -2.092402 -0.058114 -2.581196 1422.956369 -4.940051 5.581391 0.000001 -0.000005 -18.665001 -1074.540769 32.974514 -1083.933536 0.000011 -0.000007 -18.566607 759.518019 38.905673 -6.373953
58.655300 -10.889698 48.453796 3146.764101 -6.331621 -0.066487 -0.153495 1.163104 7.852407 -20.555482 8.825030 -5.251729 0.000005 0.000000 3.343308 4.672085 -3.054607 0.050939 0.000001 0.000003 7.785500 19.504044 -0.330981 3.334267 0.000000 0.000005 2.173911 1.868441 -4.959154 1.359435 2.676297 -1.652399 4.938295 13.342946 -11.288456 -14.864095 4.299009 0.000000 0.000003 -396.653155 -8.754891 226.334328 -0.000009 -0.000011 -10.245098 78.104108 706.472257 365.202265 -0.000008 -0.000004 -12.703301 1300.306279 -170.711317 592.022001 -2.534596 -1.686398 5.194994 7.467638 8.169128 2.775275 -4.144099 0.000002 0.000000 191.322765 147.218949 -156.276163 0.000005 -0.000002 -10.116496 -569.365334 -178.102879 -184.304049 0.000010 -0.000012 -12.937792 -1501.934447 -3.936772 -26.013964 2.175595 0.064492 -2.662894 -1086.513490 8.774024 -2.482632 -0.000005 0.000001 -18.585804 561.732352 -195.293741 -173.381962 -0.000010 -0.000009 -18.979506 712.302069 39.172576 -734.796286 -2.092395 -0.058106 -2.581200 1421.396463 -5.849219 4.934236 -0.000002 -0.000014 -18.664999 -1075.554916 33.703258 -1082.587606 0.000011 -0.000001 -18.566603 762.034370 39.717256 -6.378144
58.671196 -10.889000 48.423500 3145.948194 -6.205597 -0.061088 -0.153498 1.163113 7.852407 -20.936864 8.846187 -4.979121 0.000003 0.000005 3.343296 4.734214 -3.112531 0.053244 -0.000002 0.000000 7.785498 19.928694 -0.428938 3.163113 0.000000 0.000003 2.173910 2.170206 -4.862239 1.280785 2.676299 -1.652396 4.938296 12.521359 -10.634905 -14.819689 4.299002 0.000006 0.000009 -395.647505 -8.104184 227.067686 -0.000006 -0.000007 -10.245102 79.926478 706.111240 365.457850 -0.000002 0.000008 -12.703299 1302.207148 -170.610653 592.607375 -2.534597 -1.686399 5.194993 6.784270 7.848558 2.912226 -4.144097 0.000000 -0.000006 189.774293 146.600872 -154.819980 -0.000000 -0.000005 -10.116496 -569.225889 -178.089724 -184.273613 0.000006 -0.000013 -12.937792 -1501.872811 -4.468896 -26.786132 2.175594 0.064504 -2.662897 -1086.803745 8.879067 -2.397142 -0.000006 -0.000004 -18.585806 562.078178 -195.123369 -173.223815 -0.000004 0.000002 -18.979502 712.855096 38.703574 -734.612363 -2.092398 -0.058105 -2.581195 1420.007147 -6.720800 4.506625 0.000001 -0.000015 -18.665009 -1077.291423 34.240093 -1080.915467 0.000001 -0.000013 -18.566599 765.496238 40.593529 -7.286220
